<svg xmlns="http://www.w3.org/2000/svg" xmlns:xlink="http://www.w3.org/1999/xlink" width="100" height="100" viewBox="0 0 100 100" fill="none">
<rect x="0" y="0" width="0" height="0" fill="rgba(249, 249, 249, 1)" />
<g  clip-path="url(#clip-path-qEvblWTJq7bpoz4n8GiuX)">
<path     fill="#FFFFFF" fill-opacity="0" d="M0 60L0 40C0 17.9086 17.9086 0 40 0L60 0C82.0914 0 100 17.9086 100 40L100 60C100 82.0914 82.0914 100 60 100L40 100C17.9086 100 0 82.0914 0 60Z">
</path>
<path d="M52.7376 56.4466L49.9362 56.4466L49.9362 32.9386L52.7376 32.9386C53.2248 32.9386 53.7119 32.9386 54.1991 33.0617C54.6863 33.1848 55.1735 33.1848 55.6607 33.3078C56.1479 33.4309 56.7569 33.6771 57.2441 33.8002C58.7057 34.4156 59.9236 35.2771 60.898 36.2617C61.0198 36.3848 61.1416 36.631 61.3852 36.754C61.3852 36.631 61.3852 36.631 61.2634 36.5079C59.68 31.4617 56.5133 27.0308 52.494 23.8308C52.3722 23.8308 52.3722 23.7077 52.2504 23.7077C52.0068 23.4616 51.6414 23.3385 51.3978 23.0923C51.276 22.9693 51.1542 22.9693 51.0324 22.8462C50.7888 22.6 50.4234 22.4769 50.1798 22.2308C50.058 22.1077 49.9362 22.1077 49.8144 22.1077C49.2054 21.7385 48.4746 21.3692 47.7438 21C47.7438 21 47.7438 21 47.622 21L38 21L38 68.139L47.622 68.139C47.7438 68.139 47.8656 68.016 47.8656 68.016C48.1092 67.8929 48.4746 67.7698 48.7182 67.5237C48.84 67.5237 48.84 67.4006 48.9618 67.4006C49.2054 67.2775 49.5708 67.0313 49.8144 66.9082C50.058 66.7852 50.1798 66.7852 50.4234 66.6621C50.667 66.539 51.0324 66.2929 51.276 66.1698C53.103 64.939 54.6863 63.4621 56.1479 61.739C56.3915 61.3697 56.7569 61.1236 57.0005 60.7543C58.3403 59.0312 59.4365 57.1851 60.289 55.2158C60.289 55.0927 60.289 55.0927 60.4108 54.9696C60.5326 54.7235 60.6544 54.3543 60.7762 54.1081C60.7762 53.985 60.898 53.7389 60.898 53.6158C61.0198 53.3696 61.0198 53.1235 61.1416 52.8773C61.1416 52.7542 61.2634 52.6312 61.2634 52.5081C61.1416 52.6312 61.0198 52.7542 60.898 53.0004C60.4108 53.4927 59.8018 53.985 59.1929 54.4773C58.5839 54.8466 57.9749 55.2158 57.2441 55.585C56.5133 55.8312 55.7825 56.0774 55.0517 56.2004L54.9299 56.2004C54.6863 56.2004 54.4427 56.3235 54.1991 56.3235C53.7119 56.3235 53.2248 56.4466 52.7376 56.4466Z"   fill="#033F40" >
</path>
<path d="M53.8328 21.1237C53.3456 21.1237 52.9802 21.1237 52.6148 21.1237L50.9096 21.1237C58.2175 25.6776 62.9676 33.3084 63.8202 41.8009C64.0638 42.6624 64.1856 43.647 64.1856 44.6317C64.1856 45.6163 64.0638 46.4778 63.8202 47.4625L63.8202 47.7086C62.8458 56.201 58.0957 63.7088 50.9096 68.1397L52.6148 68.1397C54.6854 68.1397 56.8777 67.8935 58.8265 67.2781C60.7753 66.7858 62.724 65.9243 64.4292 64.9396C66.1344 63.955 67.7178 62.6011 69.1793 61.2473C70.0319 60.3857 70.7627 59.5242 71.4935 58.5395L71.4935 58.4165L71.7371 58.1703C72.1025 57.5549 72.4679 57.0626 72.8333 56.4472C73.8077 54.7241 74.5384 52.8779 75.1474 50.9087C75.7564 48.9394 76 46.8471 76 44.6317C76 42.5393 75.7564 40.3239 75.1474 38.3547C74.5384 36.3854 73.8077 34.4161 72.8333 32.693C71.8589 30.9699 70.6409 29.3699 69.1793 27.893C67.7178 26.416 66.1344 25.1852 64.4292 24.2006C62.724 23.216 60.7753 22.3544 58.8265 21.8621C57.3649 21.4929 55.7816 21.1237 54.1982 21.1237L53.8328 21.1237Z"   fill="#033F40" >
</path>
<path d="M38 86L49.8144 86L49.8144 69.9998L49.8144 54.8611L49.8144 52.2765L49.8144 51.538C49.8144 48.0918 48.4746 45.0148 46.1605 42.5533C44.3335 40.8302 42.1411 39.5994 39.827 39.1071C39.0962 38.984 38.4872 38.8609 38 38.8609L38 86Z"   fill="#033F40" >
</path>
<path d="M50.0599 67.7681L50.0599 67.7681L50.0599 67.7681L50.0599 67.7681Z"   fill="#033F40" >
</path>
<circle cx="50" cy="50" r="50" stroke="rgba(123, 154, 154, 1)" stroke-width="2"      fill="#CCCCCC" fill-opacity="0">
</circle>
</g>
<defs>
<clipPath id="clip-path-qEvblWTJq7bpoz4n8GiuX">
<path d="M0 60L0 40C0 17.9086 17.9086 0 40 0L60 0C82.0914 0 100 17.9086 100 40L100 60C100 82.0914 82.0914 100 60 100L40 100C17.9086 100 0 82.0914 0 60Z" fill="white"/>
</clipPath>
</defs>
</svg>
